<svg version="1.1" id="Layer_1" xmlns="http://www.w3.org/2000/svg" xmlns:xlink="http://www.w3.org/1999/xlink" x="0px" y="0px"
	 width="100%" viewBox="0 0 500 500" enable-background="new 0 0 500 500" xml:space="preserve">
<path fill="#000000" opacity="1.000000" stroke="none" 
	d="
M324.000000,501.000000 
	C217.333359,501.000000 111.166695,500.978821 5.000181,501.095428 
	C1.576335,501.099182 0.903033,500.423889 0.905298,497.000031 
	C1.013776,333.000122 1.013757,169.000153 0.905338,5.000257 
	C0.903075,1.576981 1.575761,0.903020 4.999866,0.905285 
	C168.999756,1.013775 332.999725,1.013761 496.999634,0.905354 
	C500.422638,0.903092 501.096985,1.575409 501.094727,4.999746 
	C500.986206,168.999634 500.986237,332.999603 501.094604,496.999512 
	C501.096893,500.422272 500.426025,501.105225 497.000183,501.097107 
	C439.500366,500.961182 382.000153,501.000000 324.000000,501.000000 
z"/>
<path fill="#74237C" opacity="1.000000" stroke="none" 
	d="
M231.792084,347.130066 
	C231.981979,346.818604 232.027771,346.431671 232.085770,346.245667 
	C232.676285,345.247223 232.390625,344.286285 232.818848,343.141357 
	C234.720688,333.170624 238.032440,323.892487 240.680145,314.140747 
	C241.961761,312.868011 241.212891,311.495361 241.849091,310.024811 
	C242.041016,309.703461 242.031006,309.363617 242.091797,309.204865 
	C242.486816,308.531006 242.481216,307.911987 242.840027,307.107880 
	C241.504868,302.293884 237.861145,299.089874 235.415527,295.107391 
	C232.056808,289.637939 229.421158,283.972748 227.869934,277.358704 
	C228.242935,271.059235 226.154373,265.454407 225.666733,259.625336 
	C225.000320,251.659546 224.959946,243.829346 225.642258,235.857574 
	C226.182571,229.544693 227.495316,223.363968 227.835861,216.660522 
	C227.537857,215.696808 227.493057,215.131439 227.783020,214.191925 
	C228.626053,205.240463 231.433899,197.157684 233.941315,189.038757 
	C243.363419,158.530304 258.699341,131.112350 277.783447,105.655571 
	C283.307953,98.286278 288.490143,90.660477 295.535767,84.165024 
	C296.376709,83.624382 296.495697,83.009178 296.820465,82.153122 
	C297.038727,81.595535 297.184326,81.357529 297.644409,81.122780 
	C298.408997,80.489143 299.224854,80.525848 300.213501,80.014221 
	C300.540192,79.830109 300.505219,80.075645 300.450989,80.007904 
	C300.457520,79.593857 300.518433,79.247566 300.781433,78.414185 
	C300.983673,77.927101 301.006287,77.997551 300.971069,78.008896 
	C301.192963,77.795372 301.441498,77.561440 301.850250,77.125595 
	C302.020355,76.934158 302.020447,77.020256 301.977417,77.020325 
	C302.191010,76.797600 302.438019,76.564545 302.841370,76.127968 
	C303.007538,75.934799 302.997864,76.001694 302.965027,75.993790 
	C303.208191,75.753105 303.490753,75.528595 304.038422,75.233597 
	C307.741547,71.726105 311.014709,68.048134 316.484589,67.044167 
	C318.236603,65.989998 319.861359,66.740776 321.716614,66.334717 
	C331.627686,69.330246 332.622070,77.170166 328.979309,87.451469 
	C322.339294,106.192184 315.139557,124.762245 309.280396,143.745209 
	C301.298035,169.607178 294.252899,195.761459 286.993622,221.842651 
	C280.661987,244.591019 274.612457,267.417816 268.350311,290.185760 
	C267.967255,291.578430 268.496765,293.264679 266.968811,294.726318 
	C266.336182,296.587708 266.393250,298.120056 266.891968,299.845215 
	C273.257599,304.610901 279.899017,307.964752 287.735229,309.475372 
	C289.283508,311.258881 291.092926,310.082642 292.928680,310.839874 
	C293.273132,311.062256 293.614502,311.061066 293.777100,311.113129 
	C295.779572,311.893158 297.732758,311.224762 299.946228,311.840881 
	C300.293152,312.057312 300.646057,312.059174 300.812347,312.118164 
	C310.760498,312.515839 320.551483,313.253235 330.728546,311.507874 
	C335.740509,312.276031 340.282501,312.381897 345.175964,310.860168 
	C345.861816,310.694275 346.133301,310.620667 346.812073,310.619415 
	C352.885620,311.606293 358.372681,309.721344 363.978485,309.608856 
	C366.960419,309.549011 369.911011,308.907410 373.300049,308.834778 
	C373.938141,308.702148 374.180420,308.587769 374.706116,308.188538 
	C374.989594,307.903687 374.990692,307.979767 374.952637,307.980286 
	C377.286285,306.984558 379.759216,307.689240 382.585266,307.771484 
	C388.507172,309.014191 391.318939,312.068878 391.483887,317.223633 
	C391.625244,321.641968 386.910461,326.594147 381.379791,328.019592 
	C354.695618,334.897003 328.100372,342.119904 302.008240,351.004181 
	C283.947876,357.153717 266.344482,364.521484 249.008102,372.508881 
	C246.145325,373.827850 244.672165,375.579285 243.721466,378.885559 
	C238.275635,397.824860 232.518646,416.680359 225.122360,434.986664 
	C224.545959,436.413269 223.680923,437.565613 222.982239,438.862640 
	C221.635468,441.362732 219.388794,442.660187 216.843475,441.628540 
	C214.184982,440.551025 211.954605,438.133453 212.243301,435.138611 
	C212.615082,431.282013 213.919144,427.515228 215.009460,423.359161 
	C215.758163,421.867157 215.329971,420.612335 215.804291,419.134094 
	C217.816559,408.977234 219.589218,399.116516 221.495682,389.281708 
	C221.753250,387.952942 222.425690,386.551056 221.410034,385.540192 
	C220.209732,384.345581 218.921890,385.628052 217.788086,386.119141 
	C198.045105,394.670319 178.285812,403.229431 157.691696,409.529663 
	C146.736740,412.881042 135.789337,416.667816 124.112770,416.950684 
	C118.985664,417.074829 114.818993,415.134430 112.927971,410.352814 
	C111.189156,405.956116 110.924248,401.345093 114.939438,397.551697 
	C116.229324,396.333069 117.145790,394.719116 118.529190,393.127014 
	C119.128433,392.779724 119.411842,392.565369 119.851746,392.124146 
	C120.028015,391.923431 120.012276,392.021057 119.963463,392.013214 
	C120.182549,391.796722 120.434586,391.570404 120.839203,391.135803 
	C121.007660,390.945190 121.003609,391.011353 120.971107,391.004852 
	C121.412361,390.567413 122.055702,390.521545 122.810097,390.034668 
	C126.556168,386.113831 131.133240,384.260498 136.026001,382.286560 
	C136.949265,381.227417 137.935684,381.639923 139.077362,381.281250 
	C140.016510,380.955200 140.682983,381.107758 141.633850,380.984253 
	C142.155563,381.008514 142.362961,381.024200 142.865784,381.131287 
	C143.326218,381.343689 143.491226,381.464661 143.861847,381.811340 
	C144.202606,382.188538 144.337753,382.340027 144.682892,382.712097 
	C148.399414,386.075256 145.106842,388.525146 144.160797,391.838043 
	C144.271301,392.473267 144.662766,392.309296 144.856293,392.222229 
	C145.049805,392.135132 145.427307,392.035706 145.622345,392.027954 
	C146.598648,391.315369 147.605850,391.590088 148.780121,391.177917 
	C149.054382,390.955780 149.001419,391.047089 148.955750,391.020630 
	C149.405853,390.583221 150.022858,390.504669 150.898804,390.241272 
	C151.177948,390.111816 151.404709,390.010132 151.527771,390.027252 
	C152.473831,389.427460 153.450165,389.516724 154.711151,389.288269 
	C155.029892,389.127472 155.414719,389.009949 155.615433,388.996094 
	C156.182755,388.721954 156.591156,388.570160 157.367523,388.519714 
	C159.995361,389.115479 161.867249,387.937958 164.102509,386.919312 
	C164.578979,386.670837 164.763763,386.561859 165.227478,386.295349 
	C165.706146,386.065491 165.905884,385.993164 166.400604,385.804077 
	C166.896667,385.624634 167.097778,385.562012 167.604050,385.420410 
	C169.038147,384.832520 170.441483,385.225433 171.709137,384.130615 
	C172.164017,383.894287 172.344009,383.796326 172.788910,383.543701 
	C173.233688,383.292572 173.413528,383.196136 173.858902,382.948303 
	C174.277222,382.662354 174.430023,382.527771 174.776077,382.156738 
	C174.969345,381.920258 174.983139,381.979370 174.953186,381.974457 
	C175.473740,381.482056 176.192123,381.522461 177.164825,381.244995 
	C180.744095,381.105927 183.382065,379.298126 186.533997,377.954742 
	C187.025253,377.708160 187.208664,377.587616 187.675537,377.305084 
	C188.377792,377.042175 188.795578,376.937469 189.501190,376.696564 
	C189.983780,376.481201 190.177719,376.398682 190.663971,376.198547 
	C191.365448,375.979736 191.742661,375.809601 192.298431,375.334442 
	C192.983139,374.674255 193.581360,374.496185 194.456863,374.193817 
	C195.345657,373.919037 195.986877,374.109558 196.853485,373.753845 
	C197.301575,373.520386 197.470673,373.408173 197.917450,373.171783 
	C198.387222,372.983582 198.579300,372.919617 199.029373,372.696106 
	C199.458542,372.429443 199.629745,372.322266 200.091522,372.130310 
	C200.982239,371.988617 201.589005,371.959167 202.359436,371.437805 
	C202.924210,371.016876 203.246048,370.775208 203.813080,370.358093 
	C206.083344,369.138062 208.103226,368.086578 210.472824,367.032257 
	C211.115250,366.795166 211.414017,366.568909 211.977844,366.241425 
	C212.236954,366.132355 212.476425,366.023468 212.607910,366.026672 
	C213.283096,365.645569 213.918732,365.509552 214.797440,365.150757 
	C215.045593,364.941711 214.992859,365.021393 214.952988,364.995056 
	C215.636154,364.350555 216.531311,364.553284 217.653931,364.319824 
	C219.361679,362.767090 221.453003,362.362701 223.106430,361.740417 
	C228.011749,359.894287 229.862930,356.275208 230.979736,351.353058 
	C231.783279,349.885315 231.323242,348.618164 231.792084,347.130066 
z"/>
<path fill="#66186A" opacity="1.000000" stroke="none" 
	d="
M227.851883,216.144012 
	C229.704727,222.800797 227.023026,229.339737 226.540604,236.042328 
	C225.776535,246.658234 225.598618,257.148895 228.021606,267.592255 
	C228.684769,270.450562 229.374252,273.423218 227.964386,276.665344 
	C226.608444,276.186249 227.067062,274.961853 226.973145,273.546326 
	C226.055252,271.751312 226.737747,270.104614 226.193604,268.258606 
	C225.960190,267.939667 226.046616,268.025848 226.003540,268.069092 
	C225.030930,266.407288 225.733521,264.550201 225.320038,262.423035 
	C225.122833,261.302185 225.069672,260.542053 225.001404,259.400391 
	C223.923065,251.612823 224.741837,244.169647 224.770187,236.314362 
	C225.006729,235.139786 225.019760,234.397324 225.094635,233.288666 
	C225.901138,230.837204 225.264755,228.664062 225.759079,226.199646 
	C225.956055,225.848923 226.019547,225.377014 226.088684,225.149200 
	C226.858948,223.474091 226.258575,221.893768 226.819641,220.086884 
	C227.020447,219.762146 227.027313,219.379807 227.088562,219.198669 
	C227.676590,218.185608 227.414322,217.230057 227.851883,216.144012 
z"/>
<path fill="#76467A" opacity="1.000000" stroke="none" 
	d="
M332.582458,312.300903 
	C322.050781,313.153717 311.920471,313.499420 301.377991,312.288757 
	C313.654358,311.808929 326.330078,311.440704 339.464294,311.121277 
	C338.080719,314.103912 335.255829,311.797180 332.582458,312.300903 
z"/>
<path fill="#66186A" opacity="1.000000" stroke="none" 
	d="
M374.451172,308.532654 
	C366.085785,311.541656 356.996307,312.022705 347.416687,311.238892 
	C348.329987,309.872437 349.938721,310.811218 351.697693,310.295715 
	C352.040344,310.134796 352.379578,310.022095 352.558289,310.025146 
	C355.872620,308.844788 359.140625,309.847839 362.691803,309.203796 
	C363.059906,308.959747 362.998871,309.033142 362.962158,309.002625 
	C366.576904,307.972900 370.302948,308.737488 374.451172,308.532654 
z"/>
<path fill="#793B76" opacity="1.000000" stroke="none" 
	d="
M224.662750,236.166077 
	C224.985107,243.281418 224.976532,250.680588 224.977127,258.549316 
	C223.023254,251.546478 224.247147,243.981689 224.662750,236.166077 
z"/>
<path fill="#76467A" opacity="1.000000" stroke="none" 
	d="
M194.983765,374.835236 
	C194.239288,375.108490 193.816254,375.220795 193.196030,375.429047 
	C192.806061,376.000153 192.465637,376.316376 191.609772,376.483978 
	C190.996979,376.478943 190.752075,376.463745 190.232422,376.203674 
	C193.892822,372.832428 198.804977,371.915741 203.682495,370.124268 
	C203.897522,370.633209 203.731567,371.076904 203.523468,371.753571 
	C202.585571,372.500793 201.586075,372.499329 200.293549,372.775360 
	C199.986801,372.984558 200.000320,373.003815 199.999527,372.992371 
	C199.579132,373.437195 198.986465,373.487122 198.209473,373.819000 
	C197.979187,373.993042 198.007919,374.019135 198.008148,373.999725 
	C197.252365,374.776611 196.178604,374.335175 194.983765,374.835236 
z"/>
<path fill="#671C6C" opacity="1.000000" stroke="none" 
	d="
M332.538239,312.260864 
	C334.512177,311.882172 336.849243,311.632843 339.554535,311.276794 
	C339.922760,311.170074 340.360077,311.025848 340.589172,311.002808 
	C342.234314,310.108826 343.781860,310.620056 345.623779,310.850311 
	C341.822632,313.731628 337.379272,313.242310 332.538239,312.260864 
z"/>
<path fill="#671C6C" opacity="1.000000" stroke="none" 
	d="
M165.611084,386.602356 
	C163.814514,388.640594 161.519852,389.895386 158.312439,389.166077 
	C158.057724,388.641846 158.276001,388.340393 158.837830,387.916748 
	C159.515533,386.810364 160.367859,386.997620 161.445511,386.985321 
	C162.836044,386.358398 164.038330,386.261963 165.611084,386.602356 
z"/>
<path fill="#7D4982" opacity="1.000000" stroke="none" 
	d="
M144.898346,382.554626 
	C144.892853,382.932678 144.695236,382.940155 144.602478,382.974426 
	C144.121124,382.867432 143.758377,382.677612 143.215012,382.205566 
	C143.004211,381.979950 143.008179,381.998993 143.010818,381.986572 
	C142.082321,381.269623 141.098724,381.396729 139.803986,381.887085 
	C138.636566,381.974548 137.763489,381.965210 136.563141,381.966919 
	C139.159164,380.560822 142.116058,377.678558 144.898346,382.554626 
z"/>
<path fill="#7D4982" opacity="1.000000" stroke="none" 
	d="
M374.921570,308.395020 
	C371.227753,308.724396 367.540009,308.888123 363.388855,309.012024 
	C366.486084,306.817657 370.387329,308.623749 374.535156,307.958252 
	C374.989594,307.903687 374.927643,308.229370 374.921570,308.395020 
z"/>
<path fill="#76467A" opacity="1.000000" stroke="none" 
	d="
M346.240265,311.127930 
	C344.541168,311.108551 343.109436,311.072327 341.247986,311.007935 
	C344.092621,308.892059 347.699585,310.478729 351.582092,310.090881 
	C350.617096,310.428528 349.193848,310.722260 347.406982,311.057129 
	C346.864807,311.102539 346.686218,311.106812 346.240265,311.127930 
z"/>
<path fill="#76467A" opacity="1.000000" stroke="none" 
	d="
M362.606506,308.982239 
	C360.028992,310.192657 356.826385,309.973785 353.199097,310.049805 
	C355.678802,307.875641 359.034363,309.529694 362.606506,308.982239 
z"/>
<path fill="#671C6C" opacity="1.000000" stroke="none" 
	d="
M172.624817,383.754150 
	C171.571564,385.545959 169.719101,385.958344 167.339447,385.986633 
	C166.830460,385.832397 166.698898,385.667603 166.817307,385.308960 
	C167.789413,384.755157 168.511551,384.395203 169.540344,384.016602 
	C170.558395,383.353119 171.428223,383.529083 172.624817,383.754150 
z"/>
<path fill="#7D4982" opacity="1.000000" stroke="none" 
	d="
M382.765869,307.662048 
	C380.597504,307.988098 378.206207,307.981598 375.364777,307.977966 
	C377.312653,306.068237 379.969727,307.189636 382.765869,307.662048 
z"/>
<path fill="#76467A" opacity="1.000000" stroke="none" 
	d="
M166.696823,385.064941 
	C167.067276,385.115143 167.029312,385.557831 166.995667,385.777527 
	C166.962006,385.997192 166.999207,386.007477 167.006775,385.990448 
	C166.765778,386.179474 166.536652,386.405273 166.155731,386.821045 
	C165.984436,386.991241 165.995560,386.940063 165.975128,386.923035 
	C164.833832,386.938385 163.712982,386.970764 162.168961,387.006378 
	C163.011749,385.745636 164.563049,385.136780 166.696823,385.064941 
z"/>
<path fill="#7D4982" opacity="1.000000" stroke="none" 
	d="
M189.599091,375.981873 
	C189.957642,375.958801 190.336823,375.976532 190.526611,375.975525 
	C191.039749,376.228638 191.363037,376.482849 191.080750,376.854065 
	C190.475098,376.971191 190.368179,376.924286 190.309814,376.925964 
	C189.733627,377.337372 189.118729,377.495148 188.231750,377.800598 
	C187.977142,377.993683 188.026642,378.002106 188.014862,377.979950 
	C187.482147,378.561218 186.729584,378.480164 185.498474,378.288330 
	C186.109528,376.718353 187.475998,375.924072 189.599091,375.981873 
z"/>
<path fill="#793B76" opacity="1.000000" stroke="none" 
	d="
M225.632050,226.098633 
	C225.768143,227.961578 225.580215,230.074234 225.274384,232.554657 
	C225.207001,230.731079 225.257523,228.539719 225.632050,226.098633 
z"/>
<path fill="#793B76" opacity="1.000000" stroke="none" 
	d="
M225.124680,262.462555 
	C225.436325,263.817871 225.696655,265.573364 225.958740,267.720581 
	C224.204575,266.609222 225.335159,264.618347 225.124680,262.462555 
z"/>
<path fill="#7D4982" opacity="1.000000" stroke="none" 
	d="
M267.104797,299.620239 
	C265.433350,298.766876 266.058472,297.182526 266.679230,295.344025 
	C266.872681,296.452576 266.957062,297.830627 267.104797,299.620239 
z"/>
<path fill="#76467A" opacity="1.000000" stroke="none" 
	d="
M180.099045,380.260193 
	C181.089859,378.665680 182.544205,378.066010 184.591064,377.975006 
	C184.945740,377.958313 185.001572,377.964722 185.021301,377.984741 
	C185.022995,380.298706 182.831085,379.921387 181.281525,380.816956 
	C180.701996,380.768372 180.480240,380.675873 180.099045,380.260193 
z"/>
<path fill="#76467A" opacity="1.000000" stroke="none" 
	d="
M178.041336,381.801971 
	C177.012558,381.978363 176.315994,381.986603 175.271332,381.982178 
	C176.093445,380.736328 177.461151,379.928406 179.582001,379.954681 
	C179.939590,379.936981 179.976273,379.982086 179.994583,380.004700 
	C180.606293,381.725922 179.130325,381.312927 178.041336,381.801971 
z"/>
<path fill="#76467A" opacity="1.000000" stroke="none" 
	d="
M300.044800,311.712585 
	C298.426544,311.846741 296.559906,311.636139 294.316467,311.295349 
	C295.898926,311.030060 297.867981,310.612701 300.044800,311.712585 
z"/>
<path fill="#7D4982" opacity="1.000000" stroke="none" 
	d="
M321.682983,66.128860 
	C320.594666,66.471581 319.106293,66.736511 317.235016,67.029366 
	C318.005829,65.298492 319.778564,66.265579 321.682983,66.128860 
z"/>
<path fill="#76467A" opacity="1.000000" stroke="none" 
	d="
M293.039307,310.722412 
	C291.741119,310.742981 290.209076,310.423737 288.324249,309.932220 
	C289.582764,309.967499 291.194122,310.175049 293.039307,310.722412 
z"/>
<path fill="#793B76" opacity="1.000000" stroke="none" 
	d="
M225.982254,268.342163 
	C226.297379,269.433929 226.634567,270.928223 226.978027,272.813171 
	C225.340164,272.006989 226.243057,270.250366 225.982254,268.342163 
z"/>
<path fill="#793B76" opacity="1.000000" stroke="none" 
	d="
M228.110382,215.595551 
	C227.884811,216.770554 227.635117,217.592957 227.267609,218.716461 
	C227.216202,217.439331 227.282608,215.861130 227.676743,214.054871 
	C228.031723,214.298859 228.059006,214.770905 228.110382,215.595551 
z"/>
<path fill="#793B76" opacity="1.000000" stroke="none" 
	d="
M226.711365,220.010620 
	C226.816635,221.249268 226.612823,222.736374 226.283417,224.572433 
	C226.041229,223.356888 225.752670,221.783386 226.711365,220.010620 
z"/>
<path fill="#793B76" opacity="1.000000" stroke="none" 
	d="
M231.672974,347.042725 
	C231.788406,347.993073 231.594818,349.167572 231.282501,350.681152 
	C231.230499,349.769104 231.297226,348.517944 231.672974,347.042725 
z"/>
<path fill="#7D4982" opacity="1.000000" stroke="none" 
	d="
M241.724915,309.931061 
	C241.768082,310.882843 241.495148,312.062256 241.105194,313.579834 
	C241.128387,312.664917 241.268585,311.411804 241.724915,309.931061 
z"/>
<path fill="#76467A" opacity="1.000000" stroke="none" 
	d="
M215.685638,419.043213 
	C215.809143,419.997040 215.616455,421.164215 215.310516,422.669983 
	C215.254639,421.757904 215.312042,420.507233 215.685638,419.043213 
z"/>
<path fill="#7D4982" opacity="1.000000" stroke="none" 
	d="
M158.671783,387.794098 
	C158.800171,387.989960 158.585327,388.305817 158.188095,388.842682 
	C157.519348,389.048798 157.033005,389.033875 156.181396,389.000610 
	C156.349289,387.910400 157.395203,388.044647 158.671783,387.794098 
z"/>
<path fill="#76467A" opacity="1.000000" stroke="none" 
	d="
M172.990540,383.993713 
	C172.201431,383.986176 171.417755,383.995453 170.240540,384.001343 
	C170.554169,383.545135 171.261353,383.092316 172.249573,382.475555 
	C172.735977,382.362549 172.941345,382.413513 173.350922,382.707092 
	C173.515518,383.157196 173.475922,383.364655 173.201355,383.784576 
	C172.966370,383.997040 172.995987,384.010559 172.990540,383.993713 
z"/>
<path fill="#7D4982" opacity="1.000000" stroke="none" 
	d="
M154.656525,389.072174 
	C154.141144,389.423126 153.252396,389.718750 152.007233,390.029388 
	C152.244370,388.974548 153.252182,388.966003 154.656525,389.072174 
z"/>
<path fill="#7D4982" opacity="1.000000" stroke="none" 
	d="
M148.694031,390.989014 
	C148.201309,391.271118 147.348221,391.586456 146.156281,391.960999 
	C146.344666,390.902161 147.406372,391.131683 148.694031,390.989014 
z"/>
<path fill="#7D4982" opacity="1.000000" stroke="none" 
	d="
M217.605255,364.125366 
	C217.143463,364.428680 216.342392,364.672668 215.227234,364.942688 
	C215.390457,363.867676 216.362549,364.056366 217.605255,364.125366 
z"/>
<path fill="#793B76" opacity="1.000000" stroke="none" 
	d="
M232.700806,343.046082 
	C232.810959,343.723328 232.607239,344.583344 232.273651,345.751526 
	C232.224823,345.116058 232.305862,344.172485 232.700806,343.046082 
z"/>
<path fill="#76467A" opacity="1.000000" stroke="none" 
	d="
M174.659180,381.948853 
	C174.969345,381.920258 175.000916,382.409821 175.008316,382.655029 
	C174.664688,383.339874 174.209702,383.527893 173.331451,383.238220 
	C173.012192,383.012207 172.765610,382.667267 172.648117,382.489441 
	C173.136749,382.200226 173.742889,382.088806 174.659180,381.948853 
z"/>
<path fill="#793B76" opacity="1.000000" stroke="none" 
	d="
M144.814117,392.063660 
	C144.543900,392.368652 144.037979,392.602203 143.244797,392.900391 
	C143.207596,392.727295 143.457687,392.489502 143.900528,392.079224 
	C144.093277,391.906738 144.578415,391.992157 144.814117,392.063660 
z"/>
<path fill="#7D4982" opacity="1.000000" stroke="none" 
	d="
M150.841782,390.072937 
	C150.616882,390.351685 150.055832,390.591583 149.202423,390.912842 
	C149.200684,390.273224 149.792953,390.053619 150.841782,390.072937 
z"/>
<path fill="#7D4982" opacity="1.000000" stroke="none" 
	d="
M122.721573,389.904846 
	C122.505829,390.123901 121.997353,390.442627 121.213737,390.879822 
	C121.435356,390.667053 121.932098,390.335785 122.721573,389.904846 
z"/>
<path fill="#7D4982" opacity="1.000000" stroke="none" 
	d="
M242.712097,307.007141 
	C242.810699,307.414062 242.611816,307.964905 242.282776,308.780945 
	C242.239944,308.414429 242.327286,307.782776 242.712097,307.007141 
z"/>
<path fill="#76467A" opacity="1.000000" stroke="none" 
	d="
M300.160797,79.618286 
	C299.876587,80.154266 299.213013,80.478424 298.199432,80.930847 
	C298.493439,80.508217 299.137421,79.957336 300.160797,79.618286 
z"/>
<path fill="#76467A" opacity="1.000000" stroke="none" 
	d="
M296.726166,82.062706 
	C296.719147,82.436546 296.435760,82.972618 295.992004,83.768150 
	C296.037689,83.426720 296.243744,82.825829 296.726166,82.062706 
z"/>
<path fill="#7D4982" opacity="1.000000" stroke="none" 
	d="
M214.709503,364.976532 
	C214.478134,365.230957 213.910690,365.520172 213.041321,365.919678 
	C213.284073,365.690369 213.828735,365.350861 214.709503,364.976532 
z"/>
<path fill="#7D4982" opacity="1.000000" stroke="none" 
	d="
M211.927750,366.133484 
	C211.926331,366.337769 211.615707,366.543182 211.063812,366.889008 
	C211.087875,366.731140 211.353210,366.432861 211.927750,366.133484 
z"/>
<path fill="#7D4982" opacity="1.000000" stroke="none" 
	d="
M119.757004,392.001160 
	C119.759415,392.154114 119.490814,392.384796 119.023758,392.791748 
	C119.045525,392.671661 119.265762,392.375305 119.757004,392.001160 
z"/>
<path fill="#7D4982" opacity="1.000000" stroke="none" 
	d="
M120.728165,390.998230 
	C120.783295,391.200714 120.558945,391.456238 120.124626,391.858582 
	C120.092667,391.687347 120.270676,391.369293 120.728165,390.998230 
z"/>
<path fill="#7D4982" opacity="1.000000" stroke="none" 
	d="
M303.991547,75.132660 
	C304.010254,75.369904 303.722748,75.583870 303.183716,75.891861 
	C303.183228,75.693726 303.434265,75.401558 303.991547,75.132660 
z"/>
<path fill="#7D4982" opacity="1.000000" stroke="none" 
	d="
M302.746063,76.019669 
	C302.777313,76.184326 302.547089,76.433868 302.125610,76.851906 
	C302.117767,76.715118 302.301178,76.409836 302.746063,76.019669 
z"/>
<path fill="#7D4982" opacity="1.000000" stroke="none" 
	d="
M301.756653,77.017685 
	C301.786774,77.182991 301.553192,77.431831 301.127747,77.850449 
	C301.121552,77.713882 301.307251,77.407547 301.756653,77.017685 
z"/>
<path fill="#7D4982" opacity="1.000000" stroke="none" 
	d="
M300.663757,78.088104 
	C300.900909,78.265312 300.818146,78.603523 300.566040,79.440941 
	C299.350464,79.408623 300.048859,78.822563 300.663757,78.088104 
z"/>
<path fill="#000000" opacity="1.000000" stroke="none" 
	d="
M253.209473,270.650513 
	C251.254028,273.074951 251.127396,275.734497 250.473083,279.751343 
	C247.121689,272.674316 246.015396,266.431976 244.903809,260.062683 
	C243.257065,250.627014 245.164078,241.307785 244.976883,231.108978 
	C244.798920,228.373581 244.936737,226.480896 245.322693,224.241821 
	C246.153412,222.501297 246.138657,221.036057 245.986786,219.169830 
	C246.606064,217.371353 246.748444,215.851761 247.164307,214.011536 
	C250.495331,202.686554 252.902954,191.469543 257.290497,180.853348 
	C258.756439,177.306290 259.578766,173.475510 262.515656,170.252029 
	C271.999329,150.736282 282.714233,132.397186 296.768921,115.091599 
	C294.686920,124.434311 290.506622,132.368683 288.999146,141.455078 
	C288.059967,144.571472 288.204620,147.532089 287.095581,150.582886 
	C287.025269,151.179108 287.007629,151.419403 286.920197,152.015350 
	C285.296539,155.028015 283.887573,157.738693 283.608093,161.246124 
	C283.290222,162.512878 283.239624,163.465912 282.924194,164.727600 
	C282.309509,165.841278 281.989838,166.731781 281.192047,167.728561 
	C280.924347,167.953979 280.967682,167.995178 280.963684,167.965561 
	C280.139221,169.022247 280.699066,170.323700 280.169647,171.774033 
	C279.933929,172.055969 280.048676,172.034836 280.038147,171.977448 
	C279.893494,172.069275 279.759338,172.218506 279.434082,172.600281 
	C279.174774,173.600327 279.106537,174.367828 279.024139,175.520874 
	C278.275269,176.648804 278.611145,177.643890 278.172913,178.770752 
	C277.950165,179.032639 278.006073,178.979095 277.979340,178.951111 
	C277.321655,179.678497 277.573944,180.611465 277.312866,181.773102 
	C277.184570,182.079224 277.065155,182.430252 277.050415,182.615051 
	C276.337341,183.564789 276.571472,184.548325 276.191162,185.704742 
	C273.911987,190.497223 273.224731,195.410156 271.926086,200.563019 
	C272.733765,203.191452 271.413574,205.123077 270.991333,207.538330 
	C270.785553,208.835419 270.115967,209.620529 270.131592,210.972198 
	C270.095123,211.566895 270.032898,211.800690 269.771179,212.336243 
	C268.716461,214.885971 268.468781,217.320847 267.180054,219.765305 
	C266.905823,220.010803 266.984406,219.995651 266.976776,219.956375 
	C266.327271,222.005981 266.353394,224.218933 265.635956,226.670471 
	C264.914398,229.344040 264.556427,231.718918 263.822998,234.373932 
	C263.442505,235.381882 262.712860,235.716721 262.290466,236.749207 
	C262.158417,237.089264 262.032104,237.416397 262.012726,237.590652 
	C261.198364,238.860184 261.636841,240.144943 261.225342,241.627838 
	C259.361420,246.538422 257.777557,251.171188 256.990906,256.428650 
	C256.627289,257.320038 256.500885,257.894135 256.279358,258.742981 
	C256.131409,258.999786 256.014099,259.381287 256.008270,259.580750 
	C255.369385,260.560242 255.544403,261.510498 255.310394,262.716614 
	C255.171005,263.029236 255.046341,263.427185 255.023056,263.634399 
	C254.604980,264.338623 254.502686,264.936737 254.284103,265.814697 
	C254.155167,266.090179 254.035950,266.424896 254.016968,266.601532 
	C253.182587,267.873871 253.649323,269.169922 253.209473,270.650513 
z"/>
<path fill="#000000" opacity="1.000000" stroke="none" 
	d="
M253.506256,347.858612 
	C253.179398,341.313507 256.174561,335.575745 257.872498,329.523254 
	C260.292023,320.898468 260.380554,321.146240 268.368408,324.686310 
	C275.875183,328.013275 283.792755,330.147461 292.179596,331.840393 
	C279.415558,337.227509 266.496246,342.259369 253.506256,347.858612 
z"/>
<path fill="#66186A" opacity="1.000000" stroke="none" 
	d="
M262.694458,169.937500 
	C257.072968,184.167023 251.749054,198.439407 248.515839,213.731781 
	C246.756989,215.272720 247.881470,217.033005 247.196060,218.839661 
	C246.839920,220.666092 246.709274,222.159302 245.811691,223.845764 
	C244.397552,214.609848 248.437653,206.113983 250.636276,197.292053 
	C252.681381,189.086136 255.396133,180.986572 259.162567,173.343994 
	C259.858124,171.932632 259.853607,169.499847 262.694458,169.937500 
z"/>
<path fill="#671C6C" opacity="1.000000" stroke="none" 
	d="
M269.807922,208.110474 
	C270.432068,205.694565 270.875854,203.568848 271.600342,201.202728 
	C273.274200,200.381409 273.915100,201.067245 273.468109,202.292633 
	C271.776642,206.929504 272.009369,212.126617 269.140869,216.747681 
	C267.908051,215.634842 268.714111,214.057434 268.774475,212.159210 
	C268.991852,211.748749 268.999847,211.383713 269.052856,211.209030 
	C269.702576,210.240204 269.379578,209.263870 269.807922,208.110474 
z"/>
<path fill="#671C6C" opacity="1.000000" stroke="none" 
	d="
M262.751892,235.154083 
	C263.416931,232.359695 263.859619,229.887390 264.587128,227.171524 
	C265.055908,226.787277 265.239868,226.646591 265.691406,226.727356 
	C265.833221,229.989502 265.901337,233.083252 263.358582,235.768341 
	C262.914154,235.828751 262.721832,235.652451 262.751892,235.154083 
z"/>
<path fill="#66186A" opacity="1.000000" stroke="none" 
	d="
M245.006683,231.043915 
	C244.566574,232.733231 244.107819,234.447906 243.286911,237.516174 
	C242.790451,232.201187 243.231689,228.359558 244.879074,224.326416 
	C245.044754,224.039017 245.076263,224.074890 245.092300,224.092651 
	C245.892288,226.139954 245.362473,228.242584 245.246460,230.708450 
	C245.039642,231.106216 244.988022,231.069290 245.006683,231.043915 
z"/>
<path fill="#671C6C" opacity="1.000000" stroke="none" 
	d="
M178.121399,381.951630 
	C178.335327,381.462067 178.961533,380.954010 179.800323,380.236633 
	C181.667053,379.935638 183.149887,379.364838 184.770538,378.213806 
	C185.781387,377.982819 186.521713,377.960938 187.632568,377.948425 
	C185.229034,380.193878 182.141510,381.683197 178.121399,381.951630 
z"/>
<path fill="#66186A" opacity="1.000000" stroke="none" 
	d="
M285.784241,152.149963 
	C286.006348,151.753677 285.995605,151.411392 286.047089,151.248093 
	C286.932831,149.325394 286.990143,147.257202 288.622375,145.707458 
	C288.726959,148.883453 288.416595,152.006790 286.165771,154.910568 
	C285.324463,154.366043 285.528107,153.444763 285.784241,152.149963 
z"/>
<path fill="#793B76" opacity="1.000000" stroke="none" 
	d="
M285.713959,152.006500 
	C285.989471,152.608887 285.972595,153.464111 285.935547,154.750031 
	C285.689453,155.619583 285.463531,156.058426 285.129822,156.722443 
	C285.403168,157.381699 285.532135,157.880966 285.102417,158.711151 
	C284.564514,159.834152 284.333405,160.691345 284.033203,161.761627 
	C283.788757,162.111618 283.613403,162.248520 283.179504,162.174500 
	C282.629486,158.438950 284.632904,155.505661 285.713959,152.006500 
z"/>
<path fill="#793B76" opacity="1.000000" stroke="none" 
	d="
M268.675964,211.992584 
	C268.985657,213.217865 268.979462,214.686966 268.973083,216.597107 
	C268.445984,217.899384 267.919067,218.760620 267.148987,219.816330 
	C267.390594,217.419342 267.875336,214.827896 268.675964,211.992584 
z"/>
<path fill="#793B76" opacity="1.000000" stroke="none" 
	d="
M288.986877,145.609406 
	C288.165375,147.349228 287.337616,148.951157 286.304230,150.818939 
	C285.715027,147.856445 287.863068,145.286728 288.693604,142.072662 
	C289.003357,142.313019 289.005096,142.774826 289.009216,143.582489 
	C289.143127,144.142868 289.274597,144.357376 289.193390,144.883667 
	C288.980682,145.195419 288.980682,145.471497 288.986877,145.609406 
z"/>
<path fill="#671C6C" opacity="1.000000" stroke="none" 
	d="
M282.657776,162.158539 
	C283.094910,161.965439 283.268921,161.967300 283.703491,161.971939 
	C284.455688,164.120728 283.643402,165.890121 282.159851,167.758057 
	C281.386322,167.276855 281.506073,166.442734 281.763458,165.264893 
	C282.114960,164.056824 282.254791,163.205154 282.657776,162.158539 
z"/>
<path fill="#793B76" opacity="1.000000" stroke="none" 
	d="
M265.975525,226.959244 
	C265.777679,226.946732 265.596375,226.944626 265.143555,226.935257 
	C264.641327,224.570740 265.751556,222.512741 266.655792,220.127975 
	C266.983490,220.380814 266.997864,220.844543 267.017517,221.656097 
	C267.395752,222.402115 267.532684,222.869476 267.205292,223.713821 
	C266.976807,224.021683 267.001648,224.000809 266.999878,223.984680 
	C266.272888,224.684540 266.609100,225.650360 266.189575,226.743759 
	C265.974396,226.998581 265.992035,226.969666 265.975525,226.959244 
z"/>
<path fill="#76467A" opacity="1.000000" stroke="none" 
	d="
M280.077637,171.727020 
	C280.056000,170.805298 280.178040,169.554642 280.629883,168.119965 
	C280.713562,169.089981 280.467438,170.244019 280.077637,171.727020 
z"/>
<path fill="#7D4982" opacity="1.000000" stroke="none" 
	d="
M261.135193,241.592026 
	C261.111786,240.667206 261.218109,239.411636 261.658875,237.960495 
	C261.750549,238.930374 261.507751,240.095840 261.135193,241.592026 
z"/>
<path fill="#76467A" opacity="1.000000" stroke="none" 
	d="
M253.114578,270.610992 
	C253.106079,269.694611 253.231476,268.448273 253.677429,266.990051 
	C253.748138,267.945770 253.498306,269.113403 253.114578,270.610992 
z"/>
<path fill="#66186A" opacity="1.000000" stroke="none" 
	d="
M139.950439,381.993011 
	C140.461533,381.485077 141.432068,381.157104 142.753235,381.816437 
	C142.139389,381.983490 141.265320,381.992798 139.950439,381.993011 
z"/>
<path fill="#7D4982" opacity="1.000000" stroke="none" 
	d="
M255.291351,262.714722 
	C255.250626,262.087463 255.330261,261.145660 255.706177,259.992065 
	C255.805527,260.653534 255.608627,261.526855 255.291351,262.714722 
z"/>
<path fill="#66186A" opacity="1.000000" stroke="none" 
	d="
M195.016891,374.948608 
	C195.545929,374.681030 196.429565,374.365906 197.660782,374.015564 
	C197.129410,374.287231 196.250443,374.594147 195.016891,374.948608 
z"/>
<path fill="#66186A" opacity="1.000000" stroke="none" 
	d="
M200.344299,372.929871 
	C200.902069,372.663727 201.817322,372.342926 203.106949,372.004333 
	C202.554810,372.282745 201.628311,372.578949 200.344299,372.929871 
z"/>
<path fill="#76467A" opacity="1.000000" stroke="none" 
	d="
M281.692871,165.099854 
	C281.976196,165.679703 281.977264,166.450928 281.968384,167.607239 
	C281.785950,167.988892 281.613495,167.985443 281.182709,167.967987 
	C281.086456,167.066391 281.248566,166.178802 281.692871,165.099854 
z"/>
<path fill="#76467A" opacity="1.000000" stroke="none" 
	d="
M278.085083,178.730042 
	C278.101746,178.113174 278.253296,177.193710 278.707428,176.090332 
	C278.746643,176.746765 278.483337,177.587097 278.085083,178.730042 
z"/>
<path fill="#76467A" opacity="1.000000" stroke="none" 
	d="
M277.302246,181.772842 
	C277.237640,181.148315 277.290680,180.217392 277.648163,179.104797 
	C277.775055,179.770905 277.597473,180.618683 277.302246,181.772842 
z"/>
<path fill="#76467A" opacity="1.000000" stroke="none" 
	d="
M276.117676,185.672211 
	C276.117157,185.041336 276.268555,184.113831 276.727814,182.993088 
	C276.780273,183.658417 276.524902,184.516998 276.117676,185.672211 
z"/>
<path fill="#671C6C" opacity="1.000000" stroke="none" 
	d="
M266.115417,226.709976 
	C266.216980,226.179123 266.459564,225.359665 266.850098,224.254395 
	C266.750854,224.786163 266.503632,225.603760 266.115417,226.709976 
z"/>
<path fill="#76467A" opacity="1.000000" stroke="none" 
	d="
M254.288788,265.819580 
	C254.243378,265.451324 254.331589,264.812439 254.709778,264.007599 
	C254.807312,264.410736 254.614868,264.979828 254.288788,265.819580 
z"/>
<path fill="#793B76" opacity="1.000000" stroke="none" 
	d="
M142.997040,393.008118 
	C143.008972,393.023285 142.741211,393.178802 142.741211,393.178802 
	C142.741211,393.178802 142.844467,393.009583 142.901001,392.987305 
	C142.957520,392.965057 142.985092,392.992981 142.997040,393.008118 
z"/>
<path fill="#7D4982" opacity="1.000000" stroke="none" 
	d="
M256.258453,258.736328 
	C256.229828,258.383453 256.328247,257.767120 256.708801,256.988647 
	C256.789093,257.375275 256.587311,257.924042 256.258453,258.736328 
z"/>
<path fill="#7D4982" opacity="1.000000" stroke="none" 
	d="
M262.712219,235.023773 
	C262.995911,235.027451 263.017578,235.222900 263.072876,235.711716 
	C262.894348,236.243774 262.685822,236.485611 262.319672,236.909927 
	C262.255676,236.464691 262.352936,235.840118 262.712219,235.023773 
z"/>
<path fill="#671C6C" opacity="1.000000" stroke="none" 
	d="
M173.005783,383.258667 
	C173.457382,382.989349 173.902573,382.966492 174.681732,382.921936 
	C174.512466,383.192291 174.009216,383.484344 173.236160,383.886719 
	C172.966370,383.997040 172.999374,383.505096 173.005783,383.258667 
z"/>
<path fill="#671C6C" opacity="1.000000" stroke="none" 
	d="
M267.047058,223.825104 
	C266.980621,223.573013 266.984436,223.124329 267.005524,222.339813 
	C267.054291,222.545471 267.085815,223.087006 267.047058,223.825104 
z"/>
<path fill="#66186A" opacity="1.000000" stroke="none" 
	d="
M198.247223,373.899750 
	C198.465546,373.699524 198.951920,373.406036 199.718506,373.046753 
	C199.504257,373.256134 199.009766,373.531311 198.247223,373.899750 
z"/>
<path fill="#66186A" opacity="1.000000" stroke="none" 
	d="
M284.898193,158.789444 
	C284.845123,158.526321 284.894623,158.075653 284.983093,157.286301 
	C285.014984,157.499039 285.007874,158.050476 284.898193,158.789444 
z"/>
<path fill="#671C6C" opacity="1.000000" stroke="none" 
	d="
M188.264069,377.874664 
	C188.527267,377.695587 189.077408,377.397522 189.939499,377.013550 
	C189.684647,377.203644 189.117828,377.479645 188.264069,377.874664 
z"/>
<path fill="#671C6C" opacity="1.000000" stroke="none" 
	d="
M190.817993,376.840668 
	C190.515121,376.804871 190.555130,376.638550 190.655762,376.223389 
	C191.226425,375.887115 191.736450,375.799683 192.622650,375.618652 
	C192.386185,375.920044 191.773544,376.315094 190.817993,376.840668 
z"/>
<path fill="#76467A" opacity="1.000000" stroke="none" 
	d="
M279.369324,172.677704 
	C279.190887,172.496719 279.315643,172.249817 279.822449,172.006073 
	C279.837128,172.109268 279.659760,172.310120 279.369324,172.677704 
z"/>
<path fill="#66186A" opacity="1.000000" stroke="none" 
	d="
M143.240417,382.170929 
	C143.354645,382.184448 143.705063,382.388947 144.282623,382.801086 
	C144.165375,382.793091 143.820999,382.577484 143.240417,382.170929 
z"/>
<path fill="#66186A" opacity="1.000000" stroke="none" 
	d="
M289.008423,145.036484 
	C288.982666,144.984406 288.984680,144.773376 288.999146,144.245361 
	C289.067444,144.243881 289.075623,144.560287 289.008423,145.036484 
z"/>
<path fill="#671C6C" opacity="1.000000" stroke="none" 
	d="
M166.168884,386.835144 
	C166.144012,386.702393 166.354004,386.456665 166.814392,386.113708 
	C166.811066,386.224609 166.590729,386.459839 166.168884,386.835144 
z"/>
<path fill="#793B76" opacity="1.000000" stroke="none" 
	d="
M245.366028,230.863159 
	C245.058304,229.061478 245.076965,227.016724 245.101990,224.541199 
	C245.108337,224.110413 245.554520,224.123169 245.776917,224.129181 
	C245.897018,226.296814 245.794708,228.458450 245.366028,230.863159 
z"/>
<path fill="#793B76" opacity="1.000000" stroke="none" 
	d="
M247.282532,218.924622 
	C247.295868,217.679352 247.621170,216.185791 248.093323,214.338394 
	C248.024933,215.548462 247.809708,217.112396 247.282532,218.924622 
z"/>
<path fill="#793B76" opacity="1.000000" stroke="none" 
	d="
M269.689331,208.021973 
	C269.791626,208.688873 269.595032,209.557465 269.252167,210.730194 
	C269.200745,210.097458 269.295593,209.160568 269.689331,208.021973 
z"/>
</svg>